<?xml version="1.0" encoding="utf-8"?>
<!-- Generator: Adobe Illustrator 16.0.0, SVG Export Plug-In . SVG Version: 6.00 Build 0)  -->
<!DOCTYPE svg PUBLIC "-//W3C//DTD SVG 1.1//EN" "http://www.w3.org/Graphics/SVG/1.1/DTD/svg11.dtd">
<svg version="1.1" id="Layer_1" xmlns="http://www.w3.org/2000/svg" xmlns:xlink="http://www.w3.org/1999/xlink" x="0px" y="0px"
	 width="104.987px" height="29.996px" viewBox="0 0 104.987 29.996" enable-background="new 0 0 104.987 29.996"
	 xml:space="preserve">
<g>
	<path fill-rule="evenodd" clip-rule="evenodd" fill="#FEFEFE" d="M52.611,18.107c2.047,0.453,3.998,0.549,5.99,0.922
		c10.402,1.949,20.814,3.9,31.289,5.395c5.313,0.758,8.139-1.454,8.459-5.353c0.322-3.935-2.793-6.891-7.586-7.567
		c-5.236-0.739-10.426-1.797-15.656-2.591C66.777,7.649,58.539,4.57,50.08,5.641c-11.964,1.517-23.838,3.836-35.682,6.163
		c-3.569,0.701-6.517,3.011-5.959,7.377c0.554,4.343,3.565,5.739,7.535,5.329c3.45-0.357,6.89-0.887,10.305-1.504
		C35.065,21.422,43.836,19.746,52.611,18.107z"/>
	<path fill-rule="evenodd" clip-rule="evenodd" fill="#CECDCD" d="M52.611,18.107c-8.775,1.639-17.546,3.314-26.332,4.898
		c-3.415,0.617-6.854,1.146-10.305,1.504c-3.97,0.41-6.981-0.986-7.535-5.329c-0.558-4.366,2.39-6.676,5.959-7.377
		C26.242,9.477,38.116,7.158,50.08,5.641c8.459-1.071,16.697,2.008,25.027,3.272c5.23,0.793,10.42,1.852,15.656,2.591
		c4.793,0.676,7.908,3.632,7.586,7.567c-0.32,3.898-3.146,6.11-8.459,5.353c-10.475-1.494-20.887-3.445-31.289-5.395
		C56.609,18.656,54.658,18.561,52.611,18.107z"/>
</g>
</svg>
