<?xml version="1.0" encoding="utf-8"?>
<!-- Generator: Adobe Illustrator 16.0.0, SVG Export Plug-In . SVG Version: 6.00 Build 0)  -->
<!DOCTYPE svg PUBLIC "-//W3C//DTD SVG 1.1//EN" "http://www.w3.org/Graphics/SVG/1.1/DTD/svg11.dtd">
<svg version="1.1" id="Layer_1" xmlns="http://www.w3.org/2000/svg" xmlns:xlink="http://www.w3.org/1999/xlink" x="0px" y="0px"
	 width="104.987px" height="29.996px" viewBox="0 0 104.987 29.996" enable-background="new 0 0 104.987 29.996"
	 xml:space="preserve">
<g>
	<path fill-rule="evenodd" clip-rule="evenodd" fill="#FEFEFE" d="M54.131,11.889c-2.047-0.453-3.998-0.549-5.99-0.922
		c-10.402-1.949-20.814-3.9-31.289-5.395c-5.313-0.758-8.139,1.454-8.459,5.353c-0.322,3.935,2.793,6.891,7.586,7.567
		c5.236,0.738,10.426,1.797,15.656,2.59c8.33,1.265,16.568,4.344,25.027,3.273c11.964-1.518,23.838-3.836,35.682-6.163
		c3.568-0.701,6.517-3.011,5.959-7.377c-0.555-4.343-3.565-5.739-7.535-5.329c-3.45,0.357-6.891,0.887-10.305,1.504
		C71.678,8.574,62.906,10.25,54.131,11.889z"/>
	<path fill-rule="evenodd" clip-rule="evenodd" fill="#CECDCD" d="M54.131,11.889c8.775-1.639,17.547-3.314,26.332-4.898
		c3.414-0.617,6.854-1.146,10.305-1.504c3.97-0.41,6.98,0.986,7.535,5.329c0.558,4.366-2.391,6.676-5.959,7.377
		C80.5,20.52,68.626,22.838,56.662,24.355c-8.459,1.07-16.697-2.009-25.027-3.273c-5.23-0.793-10.42-1.852-15.656-2.59
		c-4.793-0.677-7.908-3.633-7.586-7.567c0.32-3.898,3.146-6.11,8.459-5.353c10.475,1.494,20.887,3.445,31.289,5.395
		C50.133,11.34,52.084,11.436,54.131,11.889z"/>
</g>
</svg>
